<svg xmlns="http://www.w3.org/2000/svg" width="29" height="24" viewBox="0 0 29 24"><path fill="#d72a25" d="M1.52 23.82c-.45-.2-.93-.68-1.2-1.2-.15-.26.3-.77 4.3-4.85l4.44-4.56 2.62 2.68c1.44 1.46 2.7 2.66 2.82 2.66.1 0 1.4-1.23 2.9-2.74l2.7-2.74 4.4 4.52 4.4 4.5-.22.52c-.13.28-.5.7-.78.94l-.54.42-12.7.03C4.3 24 1.88 24 1.52 23.8zM0 12.17V3.94l4.02 4.1 4.03 4.13-4.03 4.1L0 20.4v-8.23zm25 3.85l-3.9-4 3.95-4.04L29 3.94v8.04c0 4.43-.02 8.05-.04 8.05s-1.8-1.8-3.95-4zM7.27 9.3L.1 1.95l.18-.44C.5.97 1.1.37 1.64.16c.57-.2 25.15-.2 25.72 0 .54.2 1.14.8 1.36 1.36l.18.44-7.16 7.33c-3.94 4.02-7.2 7.32-7.24 7.32-.04 0-3.3-3.3-7.24-7.33z"/></svg>