<svg xmlns="http://www.w3.org/2000/svg" width="46" height="33"><path fill="#f5eec1" d="M18.8 3.25c-4.76-1.1-8.92-2.03-9.26-2.03-.86-.02-1.3.58-1.76 2.3-.2.82-.38 1.56-.38 1.64 0 .08 4.5.13 10 .12h10.02L18.8 3.24zm-5.84 20.3c.97-1.08 2.08-2.38 2.48-2.88l.7-.9h2.33c2.6 0 3.08-.24 3.08-1.45 0-1.22-.5-1.45-3.08-1.45h-2.32l-1.24-1.53c-2.5-3.08-3.7-4.28-4.24-4.2-.8.12-.73.98.32 3.32.54 1.2.98 2.23.98 2.3 0 .06-.63.12-1.4.12h-1.4L8.03 15.4c-.86-1.1-1.25-1.43-1.66-1.37-.77.1-.78.96-.03 2.74L7 18.32l-.66 1.55c-.75 1.8-.74 2.63.03 2.75.4.05.8-.27 1.66-1.4l1.13-1.45h1.4c.77 0 1.4.04 1.4.1 0 .04-.43 1.06-.96 2.25-.93 2.1-1.13 2.94-.8 3.27.45.44 1.16-.03 2.76-1.83zm25.47 5.96c.33-.32.38-1.67.38-11.18 0-9.5-.04-10.86-.37-11.2-.56-.56-11.63-.56-12.2 0-.32.34-.37 1.7-.37 11.2s.05 10.86.38 11.2c.56.56 11.63.56 12.2 0zm1.18 1.77c.45-.44.97-2.4 2.88-10.78 2.3-10.14 2.33-10.25 1.9-10.84-.42-.56-1.23-.87-3.34-1.3l-.77-.15-.07 10.56c-.1 12.32.07 11.53-2.47 12.47-.43.16-.4.2.24.36.4.08.8.17.9.2.1 0 .44-.23.74-.53zm-4.75.9l-3.35-.8-14.4-.04c-10.45-.02-14.6-.1-15.2-.3-.44-.17-1.03-.6-1.3-.98C.1 29.4.1 29.1 0 18.83-.05 7.38 0 6.86 1.22 5.93c.52-.37 1.14-.5 2.8-.58l2.12-.1.4-1.95C7.07.9 7.85 0 9.37 0c.53 0 6.14 1.2 12.47 2.65 10 2.3 11.8 2.65 13.63 2.65 2.3 0 3.06.2 4.07 1.05.38.33 1.4.72 2.5.96 1 .23 2.16.58 2.54.78.72.37 1.43 1.46 1.43 2.2 0 .73-4.55 20.44-4.9 21.2-.34.76-1.63 1.56-2.45 1.52-.24 0-1.95-.4-3.8-.83zm-5.9-21.6c-.07-.2-.1-.83-.06-1.4.06-.95.13-1.06.67-1.06.56 0 .6.1.6 1.34 0 1.2-.06 1.33-.54 1.4-.3.05-.6-.07-.68-.27zm0 4.34c-.07-.2-.1-.82-.06-1.4.06-.94.13-1.05.67-1.05.56 0 .6.07.6 1.33 0 1.2-.06 1.33-.54 1.4-.3.04-.6-.07-.68-.27zm0 4.35c-.07-.2-.1-.83-.06-1.4.06-.95.13-1.06.67-1.06.56 0 .6.06.6 1.32 0 1.2-.06 1.33-.54 1.4-.3.04-.6-.07-.68-.27zm0 4.33c-.07-.2-.1-.82-.06-1.4.06-.94.13-1.05.67-1.05.56 0 .6.07.6 1.33 0 1.2-.06 1.33-.54 1.4-.3.04-.6-.07-.68-.28zm0 4.34c-.07-.2-.1-.82-.06-1.4.06-.94.13-1.05.67-1.05.56 0 .6.07.6 1.32 0 1.2-.06 1.33-.54 1.4-.3.04-.6-.08-.68-.28z"/></svg>