<svg xmlns="http://www.w3.org/2000/svg" width="18" height="20" viewBox="0 0 18 20"><path fill="#d72924" d="M7 19.9c-2.25-.23-4.72-1.13-5.86-2.12-.28-.25-.67-.72-.85-1.05-.3-.5-.33-.7-.3-1.3.12-1.73 2-3.92 4.43-5.14l.8-.4.68.66c.42.4 1 .82 1.46 1.05.67.34.9.4 1.64.4.76 0 .98-.06 1.65-.4.47-.2 1.04-.63 1.45-1.03l.68-.67.8.4c2.35 1.18 4.27 3.36 4.4 5.03.15 1.63-1.34 3.08-4.05 3.96-1.85.6-4.77.85-6.92.6zM8.13 11c-.74-.24-1.22-.58-2-1.4-.8-.83-1.5-2.2-1.8-3.36-.6-2.6.56-4.98 2.95-5.94.86-.35 2.46-.38 3.3-.06 2.5.94 3.74 3.33 3.1 6-.43 1.85-1.87 3.87-3.22 4.52-.74.35-1.67.45-2.33.24z"/></svg>