<svg xmlns="http://www.w3.org/2000/svg" width="36" height="41" viewBox="0 0 36 41"><path fill="#d51f1a" d="M3.52 0c-.4 0-.83.08-1.23.24C.87.78 0 2.1 0 3.52v.08c0 .4.08.83.24 1.24l5 12.75L11.9 15 6.93 2.28C6.38.87 5.05.02 3.64 0h-.12zm2.6 12.77L2.67 3.95c-.2-.5.07-1.05.58-1.25.12-.04.25-.07.38-.07.4 0 .76.24.9.6l3.45 8.82c.2.48-.07 1.05-.58 1.25-.12.05-.25.07-.38.07-.4 0-.76-.24-.9-.6m0 6.06l4.45 11.4c.32.8.94 1.42 1.7 1.75.75.34 1.63.38 2.46.06.87-.33 1.5-1 1.85-1.76.3-.7.35-1.45.1-2.06l-4.57-11.7-6 2.3zm8.85-1.62l.78 2h16.88c.74 0 1.36.63 1.36 1.36v17.1c0 .73-.63 1.35-1.37 1.35H13.4c-.56 0-1 .45-1 1s.44 1 1 1h19.23C34.5 41 36 39.5 36 37.66v-17.1c0-1.85-1.5-3.34-3.37-3.34H14.97zm12.1 5.73c-.43 0-.8.36-.8.8s.37.8.8.8h3.12c.44 0 .8-.36.8-.8s-.36-.8-.8-.8h-3.12zm-6.5 5.35c-.45 0-.8.36-.8.8 0 .44.35.8.8.8h9.62c.44 0 .8-.36.8-.8 0-.44-.36-.8-.8-.8h-9.63zm-5.36 4.65c-.4.16-.82.22-1.24.24l1.46 2.02c.23.28.5.48.82.35.32-.13.4-.38.36-.8l-.3-2.48c-.32.26-.68.5-1.1.66m7.12.7c-.45 0-.8.35-.8.8 0 .44.35.8.8.8h7.87c.44 0 .8-.36.8-.8 0-.45-.36-.8-.8-.8H22.3z"/></svg>