<svg xmlns="http://www.w3.org/2000/svg" width="28" height="38" viewBox="0 0 28 38"><path fill="#f5eec1" d="M14 0c-3.46 0-6.27 2.75-6.27 6.14 0 .56.47 1 1.04 1 .57 0 1.03-.44 1.03-1 0-2.27 1.9-4.1 4.2-4.12 2.3 0 4.18 1.84 4.2 4.08 0 .56.47 1 1.04 1 .57 0 1.03-.45 1.03-1C20.23 2.7 17.44 0 14 0zM4.16 8.63c-.9 0-1.63.72-1.63 1.6L0 36.4C0 37.3.73 38 1.63 38h24.74c.9 0 1.63-.72 1.63-1.6l-2.42-26.18c0-.87-.73-1.6-1.63-1.6H4.15zm-.4 24.83c0-.5.4-.88.9-.88h17.6l-.57-6.5c-.06-.48.3-.9.8-.95.55 0 .95.33 1 .8l.65 7.45c.02.25-.06.5-.23.67-.17.18-.4.3-.67.3H4.65c-.5 0-.9-.4-.9-.9"/></svg>