<svg xmlns="http://www.w3.org/2000/svg" width="36" height="40" viewBox="0 0 36 40"><path fill="#f5eec1" d="M3.52 0c-.4 0-.83.08-1.23.23C.87.76 0 2.06 0 3.43v.08c0 .4.08.83.24 1.23l5 12.43 6.67-2.52L6.93 2.2C6.38.87 5.05.03 3.64 0h-.12zm2.6 12.46l-3.45-8.6c-.2-.48.07-1.03.58-1.22.12-.05.25-.07.38-.07.4 0 .76.23.9.58l3.45 8.6c.2.48-.07 1.03-.58 1.23-.12.04-.25.06-.38.06-.4 0-.76-.23-.9-.58m0 5.9l4.45 11.12c.32.8.94 1.4 1.7 1.72.75.33 1.63.37 2.46.06.87-.33 1.5-.98 1.85-1.72.3-.68.35-1.4.1-2L12.12 16.1l-6 2.27zm8.85-1.56l.78 1.94h16.88c.74 0 1.36.6 1.36 1.32v16.68c0 .7-.63 1.3-1.37 1.3H13.4c-.56 0-1 .45-1 1 0 .52.44.96 1 .96h19.23C34.5 40 36 38.54 36 36.74V20.06c0-1.8-1.5-3.26-3.37-3.26H14.97zm12.1 5.57c-.43 0-.8.35-.8.78s.37.78.8.78h3.12c.44 0 .8-.35.8-.78s-.36-.78-.8-.78h-3.12zm-6.5 5.22c-.45 0-.8.34-.8.77s.35.78.8.78h9.62c.44 0 .8-.35.8-.78 0-.43-.36-.78-.8-.78h-9.63zM15.2 32.1c-.4.16-.82.22-1.24.24l1.46 1.97c.23.28.5.48.82.35.32-.12.4-.37.36-.78l-.3-2.42c-.32.26-.68.5-1.1.64m7.12.7c-.45 0-.8.34-.8.77 0 .42.35.77.8.77h7.87c.44 0 .8-.35.8-.78 0-.44-.36-.8-.8-.8H22.3z"/></svg>