<svg xmlns="http://www.w3.org/2000/svg" width="28" height="16" viewBox="0 0 28 16"><path fill="#fff" d="M26.84 12.97c-.83-1-1.8-1.87-2.74-2.8-.84-.8-.9-1.3-.22-2.25.73-1.03 1.52-2.03 2.27-3.07.7-.96 1.4-1.93 1.76-3.1.24-.72.04-1.05-.7-1.18-.14-.02-.27-.02-.4-.02h-4.44c-.55-.02-.85.22-1.04.7-.26.67-.53 1.33-.84 1.97-.7 1.45-1.5 2.84-2.6 4.03-.24.26-.5.6-.92.45-.5-.18-.66-1.03-.65-1.32V1.2c-.1-.73-.26-1.06-.98-1.2h-4.6c-.63 0-.93.24-1.26.63-.2.22-.25.37.14.44.77.15 1.2.65 1.3 1.42.2 1.23.18 2.47.08 3.72-.04.36-.1.72-.24 1.06-.22.53-.58.64-1.05.3-.44-.28-.74-.7-1.04-1.12-1.1-1.58-1.98-3.28-2.7-5.07-.2-.52-.57-.84-1.1-.84C3.5.53 2.18.53.85.56.05.56-.2.96.13 1.7 1.6 4.95 3.2 8.12 5.3 11c1.1 1.48 2.33 2.8 3.94 3.72 1.82 1.04 3.77 1.36 5.83 1.26.97-.04 1.26-.3 1.3-1.27.03-.65.1-1.3.43-1.9.32-.6.8-.7 1.36-.34.28.18.5.4.73.66.54.6 1.06 1.22 1.63 1.8.7.72 1.54 1.15 2.6 1.06h4.07c.66-.04 1-.85.62-1.6-.26-.5-.6-.97-.98-1.42z"/></svg>